<svg width="49" height="37" viewBox="0 0 49 37" fill="none" xmlns="http://www.w3.org/2000/svg">
<path d="M41.4748 3.33522C46.87 11.3238 49.5344 20.3347 48.5384 30.7084C48.5342 30.7523 48.5115 30.7926 48.4757 30.819C44.39 33.8403 40.4316 35.6739 36.5287 36.8898C36.4983 36.8991 36.4657 36.8986 36.4357 36.8884C36.4056 36.8781 36.3794 36.8587 36.3609 36.8327C35.4592 35.5692 34.6399 34.2372 33.9221 32.8384C33.8809 32.756 33.9186 32.6568 34.0033 32.6243C35.3045 32.1306 36.5418 31.5389 37.7319 30.8383C37.8256 30.7829 37.8316 30.6476 37.745 30.5827C37.4924 30.3939 37.2422 30.1954 37.0028 29.9969C36.958 29.9603 36.8977 29.953 36.8469 29.9777C29.1205 33.5709 20.6566 33.5709 12.8389 29.9777C12.7881 29.9549 12.7278 29.9627 12.6842 29.9988C12.4454 30.1972 12.1946 30.3939 11.9444 30.5827C11.8578 30.6476 11.8649 30.7829 11.9593 30.8383C13.1494 31.5256 14.3867 32.1306 15.686 32.6267C15.7702 32.6592 15.8102 32.756 15.7684 32.8384C15.0662 34.239 14.2469 35.571 13.3285 36.8345C13.2885 36.8856 13.2228 36.9091 13.1607 36.8898C9.27633 35.6739 5.31793 33.8403 1.23223 30.819C1.19823 30.7926 1.17373 30.7505 1.17013 30.7066C0.337725 21.7335 2.03423 12.648 8.22713 3.33342C8.24213 3.30882 8.26483 3.28952 8.29103 3.27812C11.3383 1.86972 14.6028 0.833522 18.0149 0.241822C18.077 0.232222 18.1391 0.261022 18.1713 0.316422C18.5929 1.06812 19.0748 2.03212 19.4009 2.81992C22.9974 2.26662 26.6502 2.26662 30.322 2.81992C30.648 2.04892 31.1132 1.06812 31.533 0.316422C31.5479 0.288922 31.5711 0.266921 31.5992 0.253521C31.6273 0.240121 31.6589 0.236022 31.6894 0.241822C35.1033 0.835322 38.3679 1.87152 41.4127 3.27812C41.4395 3.28952 41.4616 3.30882 41.4748 3.33522ZM21.2293 20.3961C21.2669 17.7434 19.3465 15.5484 16.9359 15.5484C14.5449 15.5484 12.643 17.7242 12.643 20.3961C12.643 23.0674 14.5825 25.2431 16.9359 25.2431C19.3274 25.2431 21.2293 23.0674 21.2293 20.3961ZM37.1025 20.3961C37.1401 17.7434 35.2197 15.5484 32.8097 15.5484C30.4181 15.5484 28.5162 17.7242 28.5162 20.3961C28.5162 23.0674 30.4557 25.2431 32.8097 25.2431C35.2197 25.2431 37.1025 23.0674 37.1025 20.3961Z" fill="white"/>
</svg>
